<?xml version="1.0" encoding="UTF-8" standalone="no"?>
<svg
   xmlns:dc="http://purl.org/dc/elements/1.1/"
   xmlns:cc="http://creativecommons.org/ns#"
   xmlns:rdf="http://www.w3.org/1999/02/22-rdf-syntax-ns#"
   xmlns:svg="http://www.w3.org/2000/svg"
   xmlns="http://www.w3.org/2000/svg"
   xmlns:sodipodi="http://sodipodi.sourceforge.net/DTD/sodipodi-0.dtd"
   xmlns:inkscape="http://www.inkscape.org/namespaces/inkscape"
   width="30"
   height="32"
   viewBox="0 0 7.9374998 8.4666669"
   version="1.1"
   id="svg1942"
   inkscape:version="1.0.1 (3bc2e813f5, 2020-09-07)"
   sodipodi:docname="bitcoin0.svg">
  <defs
     id="defs1936" />
  <sodipodi:namedview
     id="base"
     pagecolor="#ffffff"
     bordercolor="#666666"
     borderopacity="1.0"
     inkscape:pageopacity="0.0"
     inkscape:pageshadow="2"
     inkscape:zoom="15.839192"
     inkscape:cx="8.9320743"
     inkscape:cy="22.477534"
     inkscape:document-units="px"
     inkscape:current-layer="layer1"
     inkscape:document-rotation="0"
     showgrid="false"
     units="px"
     inkscape:window-width="1267"
     inkscape:window-height="1198"
     inkscape:window-x="396"
     inkscape:window-y="196"
     inkscape:window-maximized="0" />
  <metadata
     id="metadata1939">
    <rdf:RDF>
      <cc:Work
         rdf:about="">
        <dc:format>image/svg+xml</dc:format>
        <dc:type
           rdf:resource="http://purl.org/dc/dcmitype/StillImage" />
        <dc:title></dc:title>
      </cc:Work>
    </rdf:RDF>
  </metadata>
  <g
     inkscape:label="Layer 1"
     inkscape:groupmode="layer"
     id="layer1">
    <g
       id="g198"
       transform="matrix(0.0176382,0,0,0.0176382,-0.3354296,-0.00471278)">
      <g
         id="g136">
        <g
           id="g134">
          <g
             id="g132">
            <path
               d="m 336.008,133.825 v -27.92 l 47.2,-94.312 c 0,-0.08 0,-0.16 0.064,-0.24 0.186,-0.492 0.323,-1.001 0.408,-1.52 0.163,-0.521 0.27,-1.057 0.32,-1.6 0,-0.088 0.048,-0.152 0.048,-0.24 C 384.001,7.617 383.926,7.246 383.824,6.881 383.77,6.305 383.655,5.736 383.48,5.185 383.278,4.727 383.031,4.291 382.744,3.881 382.5,3.424 382.211,2.992 381.88,2.593 c -0.405,-0.39 -0.85,-0.736 -1.328,-1.032 -0.29,-0.267 -0.6,-0.51 -0.928,-0.728 -0.08,0 -0.16,0 -0.24,-0.064 -0.488,-0.182 -0.991,-0.318 -1.504,-0.408 -0.521,-0.161 -1.057,-0.268 -1.6,-0.32 -0.12,0.024 -0.192,-0.024 -0.272,-0.024 -13.014,-0.268 -25.885,2.759 -37.416,8.8 -9.392,5.028 -19.936,7.51 -30.584,7.2 -10.656,0.313 -21.209,-2.17 -30.608,-7.2 -11.522,-6.04 -24.385,-9.067 -37.392,-8.8 -13.01,-0.27 -25.876,2.757 -37.4,8.8 -9.395,5.034 -19.946,7.516 -30.6,7.2 -10.651,0.312 -21.198,-2.171 -30.592,-7.2 -11.527,-6.043 -24.396,-9.07 -37.408,-8.8 -0.08,0 -0.152,0.048 -0.232,0.048 -0.543,0.052 -1.079,0.159 -1.6,0.32 -0.513,0.09 -1.016,0.226 -1.504,0.408 -0.08,0 -0.16,0 -0.24,0.064 -0.328,0.218 -0.638,0.461 -0.928,0.728 -0.478,0.296 -0.923,0.642 -1.328,1.032 -0.331,0.399 -0.62,0.831 -0.864,1.288 -0.287,0.41 -0.534,0.846 -0.736,1.304 -0.175,0.551 -0.29,1.12 -0.344,1.696 -0.102,0.365 -0.177,0.736 -0.224,1.112 0,0.088 0.048,0.152 0.048,0.24 0.05,0.543 0.157,1.079 0.32,1.6 0.085,0.519 0.222,1.028 0.408,1.52 0.04,0.08 0,0.16 0.064,0.24 l 47.16,94.288 v 27.92 c -46.12,45.504 -96,134.472 -96,194.192 0,93.888 99.664,152 192,152 92.336,0 192,-58.112 192,-152 0,-59.72 -49.88,-148.688 -96,-194.192 z M 117.552,17.177 c 5.938,1.242 11.679,3.287 17.064,6.08 11.526,6.026 24.389,9.04 37.392,8.76 13.004,0.283 25.867,-2.731 37.392,-8.76 9.394,-5.048 19.948,-7.545 30.608,-7.24 10.657,-0.299 21.207,2.197 30.6,7.24 11.529,6.027 24.394,9.04 37.4,8.76 13.011,0.281 25.882,-2.733 37.416,-8.76 5.39,-2.795 11.136,-4.841 17.08,-6.08 l -39.848,79.68 -28.472,5.176 17.384,-34.776 c 1.977,-3.952 0.376,-8.759 -3.576,-10.736 -3.952,-1.977 -8.759,-0.376 -10.736,3.576 l -21.856,43.72 c -0.146,0.401 -0.259,0.813 -0.336,1.232 -20.516,2.588 -41.255,2.899 -61.84,0.928 -0.085,-0.745 -0.282,-1.473 -0.584,-2.16 L 190.96,60.441 c -1.944,-3.968 -6.736,-5.608 -10.704,-3.664 -3.968,1.944 -5.608,6.736 -3.664,10.704 0.018,0.037 0.037,0.075 0.056,0.112 l 17.96,35.936 c -1.512,-0.248 -3.024,-0.44 -4.536,-0.712 l -32.68,-5.96 z m 202.456,96.44 v 15.728 l -29.904,5.456 c -16.368,2.962 -32.966,4.467 -49.6,4.496 h -0.08 c -0.056,0 -0.096,0 -0.152,0 -16.901,0.017 -33.77,-1.49 -50.4,-4.504 l -29.864,-5.464 v -15.712 l 26.112,4.744 0.944,0.184 c 4.389,0.789 8.784,1.483 13.184,2.08 1,0.136 1.992,0.216 2.992,0.336 12.196,1.54 24.476,2.317 36.768,2.328 17.817,-0.015 35.597,-1.621 53.128,-4.8 z m -80,350.4 c -108.712,0 -176,-70.592 -176,-136 0,-54.304 47.728,-140.168 91.544,-183.2 l 21.848,4 c -3.808,4.267 -7.659,8.915 -11.552,13.944 -2.693,3.504 -2.036,8.527 1.468,11.22 3.504,2.693 8.527,2.036 11.22,-1.468 5.486,-7.236 11.465,-14.085 17.896,-20.496 11.867,1.762 23.831,2.801 35.824,3.112 l -0.248,20.792 c -0.053,4.418 3.485,8.043 7.903,8.096 0,0 0.001,0 0.001,0 h 0.096 c 4.381,0 7.947,-3.523 8,-7.904 l 0.248,-21.008 c 11.824,-0.323 23.619,-1.354 35.32,-3.088 11.601,11.412 22.208,23.793 31.704,37.008 2.499,3.644 7.479,4.572 11.122,2.073 3.643,-2.499 4.572,-7.479 2.073,-11.122 -0.085,-0.125 -0.174,-0.247 -0.267,-0.366 -7.818,-10.808 -16.301,-21.118 -25.4,-30.872 l 21.648,-3.944 c 43.816,43.04 91.552,128.92 91.552,183.224 0,65.407 -67.288,135.999 -176,135.999 z"
               id="path122" />
            <path
               d="m 148.12,407.089 c -2.853,-1.712 -5.627,-3.504 -8.32,-5.376 -3.63,-2.521 -8.615,-1.622 -11.136,2.008 -2.521,3.63 -1.622,8.615 2.008,11.136 2.981,2.075 6.053,4.059 9.216,5.952 3.789,2.273 8.703,1.045 10.976,-2.744 2.274,-3.789 1.045,-8.703 -2.744,-10.976 z"
               id="path124" />
            <path
               d="m 340.008,401.873 c -29.604,19.748 -64.414,30.241 -100,30.144 -23.654,-0.068 -47.077,-4.669 -69,-13.552 -4.118,-1.6 -8.754,0.441 -10.355,4.559 -1.567,4.032 0.355,8.579 4.339,10.265 23.835,9.656 49.299,14.655 75.016,14.728 38.835,0.075 76.813,-11.413 109.096,-33 3.519,-2.672 4.205,-7.691 1.533,-11.209 -2.506,-3.302 -7.119,-4.142 -10.629,-1.935 z"
               id="path126" />
            <path
               d="m 240.008,408.017 c 57.438,0 104,-46.562 104,-104 0,-57.438 -46.562,-104 -104,-104 -57.438,0 -104,46.562 -104,104 0.066,57.41 46.59,103.933 104,104 z m 0,-192 c 48.601,0 88,39.399 88,88 0,48.601 -39.399,88 -88,88 -48.601,0 -88,-39.399 -88,-88 0.058,-48.578 39.423,-87.943 88,-88 z"
               id="path128" />
            <path
               d="m 216.008,376.017 h 16 v -16 h 8 v 16 h 16 v -16 h 8 c 13.255,0 24,-10.745 24,-24 v -16 c -0.021,-5.923 -2.245,-11.627 -6.24,-16 3.995,-4.373 6.219,-10.077 6.24,-16 v -16 c 0,-13.255 -10.745,-24 -24,-24 h -8 v -16 h -16 v 16 h -8 v -16 h -16 v 16 h -24 v 16 h 16 v 80 h -16 v 16 h 24 z m 8,-112 h 40 c 4.418,0 8,3.582 8,8 v 16 c 0,4.418 -3.582,8 -8,8 h -40 z m 0,48 h 40 c 4.418,0 8,3.582 8,8 v 16 c 0,4.418 -3.582,8 -8,8 h -40 z"
               id="path130" />
          </g>
        </g>
      </g>
      <g
         id="g138" />
      <g
         id="g140" />
      <g
         id="g142" />
      <g
         id="g144" />
      <g
         id="g146" />
      <g
         id="g148" />
      <g
         id="g150" />
      <g
         id="g152" />
      <g
         id="g154" />
      <g
         id="g156" />
      <g
         id="g158" />
      <g
         id="g160" />
      <g
         id="g162" />
      <g
         id="g164" />
      <g
         id="g166" />
    </g>
    <path
       style="fill:#916f6f;fill-opacity:0;stroke-width:0.0446429"
       d="M 13.623035,30.859464 C 11.114549,30.659831 8.8960727,29.921087 7.0828566,28.681609 5.6133471,27.677082 4.4631493,26.377901 3.7731376,24.943188 2.992758,23.320577 2.8402318,21.70629 3.2901665,19.831581 3.8833557,17.359984 5.4067445,14.3029 7.3056005,11.773545 7.8511999,11.046784 8.5193816,10.256763 8.8977477,9.8910787 L 9.136428,9.6603978 9.8060709,9.7889465 c 0.3683031,0.070702 0.6748671,0.1293073 0.6812531,0.1302345 0.0064,9.271e-4 -0.151053,0.197556 -0.349863,0.436954 -0.4484856,0.540043 -0.5044321,0.64326 -0.4735325,0.873632 0.033944,0.253074 0.2268696,0.435077 0.4929805,0.465072 0.273726,0.03085 0.336885,-0.01567 0.84653,-0.623622 0.23193,-0.276666 0.519778,-0.59809 0.639661,-0.714275 l 0.21797,-0.211246 0.535,0.06717 c 0.29425,0.03694 0.824181,0.08001 1.177623,0.09571 l 0.642622,0.02854 -0.02365,0.673575 c -0.02876,0.819109 -0.01345,0.932711 0.147317,1.093479 0.229851,0.22985 0.606388,0.209117 0.820358,-0.04517 0.102383,-0.121675 0.114501,-0.174596 0.114708,-0.500926 1.34e-4,-0.200684 0.0132,-0.560749 0.02905,-0.800147 l 0.02882,-0.435268 0.316928,-9.16e-4 c 0.306031,-8.84e-4 1.424108,-0.09801 1.790141,-0.15551 0.176014,-0.02765 0.183439,-0.02305 0.518296,0.320884 0.492568,0.505922 0.994138,1.090789 1.462944,1.7059 0.226056,0.296604 0.449002,0.559612 0.495433,0.584461 0.04643,0.02485 0.175828,0.04518 0.287545,0.04518 0.372181,0 0.62079,-0.361935 0.496649,-0.723039 -0.07919,-0.230342 -1.009553,-1.422727 -1.533256,-1.965069 -0.143907,-0.1490286 -0.184615,-0.2165415 -0.139511,-0.2313762 0.03503,-0.011521 0.344936,-0.071466 0.688686,-0.1332122 l 0.625,-0.1122654 0.354326,0.3659628 c 2.32609,2.402488 4.680438,6.589293 5.445962,9.684711 0.500723,2.024691 0.354501,3.609853 -0.48999,5.311838 -1.42233,2.866566 -4.430803,4.935584 -8.189762,5.632352 -1.048262,0.194307 -2.806781,0.289079 -3.839286,0.20691 z m 2.761564,-1.09447 c 1.481392,-0.187131 2.884201,-0.613555 4.224644,-1.284205 0.654023,-0.32722 1.296405,-0.711925 1.465763,-0.877806 0.249684,-0.244557 0.191996,-0.665109 -0.117085,-0.853566 -0.209651,-0.127832 -0.380469,-0.109181 -0.681262,0.07438 -0.58358,0.356143 -0.726208,0.436239 -1.199411,0.67356 -2.929437,1.469167 -6.276805,1.654314 -9.482266,0.524473 -0.45717,-0.16114 -0.6324785,-0.203649 -0.7567156,-0.183488 -0.3690142,0.05988 -0.5682067,0.50569 -0.3683178,0.824323 0.1120915,0.178679 0.3298344,0.280789 1.1880774,0.557144 0.98782,0.31808 1.963572,0.514307 3.037789,0.610913 0.599182,0.05389 2.016051,0.01925 2.688784,-0.06573 z M 8.5825834,28.066021 c 0.1672031,-0.08646 0.3079232,-0.311815 0.308142,-0.493463 2.678e-4,-0.21651 -0.1688045,-0.413184 -0.5776697,-0.672005 -0.4106986,-0.259982 -0.6046915,-0.298884 -0.852196,-0.170895 -0.2648816,0.136976 -0.3457022,0.517131 -0.1659495,0.780576 0.1269504,0.186058 0.8463991,0.624918 1.0244634,0.624918 0.071238,0 0.1896826,-0.03111 0.2632098,-0.06913 z m 7.5475306,-0.999947 c 2.441634,-0.519838 4.415206,-2.272774 5.191944,-4.611511 0.393925,-1.186098 0.466024,-2.493062 0.204004,-3.698116 -0.249713,-1.148464 -0.818446,-2.261878 -1.594354,-3.121284 -1.018675,-1.128298 -2.197946,-1.823737 -3.697066,-2.180233 -0.455159,-0.108239 -0.564526,-0.11668 -1.495535,-0.115437 -1.08863,0.0015 -1.458431,0.05353 -2.222796,0.313003 -3.1458763,1.067918 -5.1119093,4.209866 -4.677203,7.474712 0.2134915,1.60342 0.8421446,2.875665 1.9863183,4.019839 1.1246277,1.124628 2.4538117,1.787462 4.0208227,2.005093 0.488897,0.0679 1.791212,0.01882 2.283865,-0.08607 z"
       id="path2010"
       transform="scale(0.26458333)" />
    <path
       style="fill:#916f6f;fill-opacity:0;stroke-width:0.0446429"
       d="M 13.623035,30.859464 C 11.114549,30.659831 8.8960727,29.921087 7.0828566,28.681609 5.6133471,27.677082 4.4631493,26.377901 3.7731376,24.943188 2.992758,23.320577 2.8402318,21.70629 3.2901665,19.831581 3.8833557,17.359984 5.4067445,14.3029 7.3056005,11.773545 7.8511999,11.046784 8.5193816,10.256763 8.8977477,9.8910787 L 9.136428,9.6603978 9.8060709,9.7889465 c 0.3683031,0.070702 0.6748671,0.1293073 0.6812531,0.1302345 0.0064,9.271e-4 -0.151053,0.197556 -0.349863,0.436954 -0.4484856,0.540043 -0.5044321,0.64326 -0.4735325,0.873632 0.033944,0.253074 0.2268696,0.435077 0.4929805,0.465072 0.273726,0.03085 0.336885,-0.01567 0.84653,-0.623622 0.23193,-0.276666 0.519778,-0.59809 0.639661,-0.714275 l 0.21797,-0.211246 0.535,0.06717 c 0.29425,0.03694 0.824181,0.08001 1.177623,0.09571 l 0.642622,0.02854 -0.02365,0.673575 c -0.02876,0.819109 -0.01345,0.932711 0.147317,1.093479 0.229851,0.22985 0.606388,0.209117 0.820358,-0.04517 0.102383,-0.121675 0.114501,-0.174596 0.114708,-0.500926 1.34e-4,-0.200684 0.0132,-0.560749 0.02905,-0.800147 l 0.02882,-0.435268 0.316928,-9.16e-4 c 0.306031,-8.84e-4 1.424108,-0.09801 1.790141,-0.15551 0.176014,-0.02765 0.183439,-0.02305 0.518296,0.320884 0.492568,0.505922 0.994138,1.090789 1.462944,1.7059 0.226056,0.296604 0.449002,0.559612 0.495433,0.584461 0.04643,0.02485 0.175828,0.04518 0.287545,0.04518 0.372181,0 0.62079,-0.361935 0.496649,-0.723039 -0.07919,-0.230342 -1.009553,-1.422727 -1.533256,-1.965069 -0.143907,-0.1490286 -0.184615,-0.2165415 -0.139511,-0.2313762 0.03503,-0.011521 0.344936,-0.071466 0.688686,-0.1332122 l 0.625,-0.1122654 0.354326,0.3659628 c 2.32609,2.402488 4.680438,6.589293 5.445962,9.684711 0.500723,2.024691 0.354501,3.609853 -0.48999,5.311838 -1.42233,2.866566 -4.430803,4.935584 -8.189762,5.632352 -1.048262,0.194307 -2.806781,0.289079 -3.839286,0.20691 z m 2.761564,-1.09447 c 1.481392,-0.187131 2.884201,-0.613555 4.224644,-1.284205 0.654023,-0.32722 1.296405,-0.711925 1.465763,-0.877806 0.249684,-0.244557 0.191996,-0.665109 -0.117085,-0.853566 -0.209651,-0.127832 -0.380469,-0.109181 -0.681262,0.07438 -0.58358,0.356143 -0.726208,0.436239 -1.199411,0.67356 -2.929437,1.469167 -6.276805,1.654314 -9.482266,0.524473 -0.45717,-0.16114 -0.6324785,-0.203649 -0.7567156,-0.183488 -0.3690142,0.05988 -0.5682067,0.50569 -0.3683178,0.824323 0.1120915,0.178679 0.3298344,0.280789 1.1880774,0.557144 0.98782,0.31808 1.963572,0.514307 3.037789,0.610913 0.599182,0.05389 2.016051,0.01925 2.688784,-0.06573 z M 8.5825834,28.066021 c 0.1672031,-0.08646 0.3079232,-0.311815 0.308142,-0.493463 2.678e-4,-0.21651 -0.1688045,-0.413184 -0.5776697,-0.672005 -0.4106986,-0.259982 -0.6046915,-0.298884 -0.852196,-0.170895 -0.2648816,0.136976 -0.3457022,0.517131 -0.1659495,0.780576 0.1269504,0.186058 0.8463991,0.624918 1.0244634,0.624918 0.071238,0 0.1896826,-0.03111 0.2632098,-0.06913 z m 7.5475306,-0.999947 c 2.441634,-0.519838 4.415206,-2.272774 5.191944,-4.611511 0.393925,-1.186098 0.466024,-2.493062 0.204004,-3.698116 -0.249713,-1.148464 -0.818446,-2.261878 -1.594354,-3.121284 -1.018675,-1.128298 -2.197946,-1.823737 -3.697066,-2.180233 -0.455159,-0.108239 -0.564526,-0.11668 -1.495535,-0.115437 -1.08863,0.0015 -1.458431,0.05353 -2.222796,0.313003 -3.1458763,1.067918 -5.1119093,4.209866 -4.677203,7.474712 0.2134915,1.60342 0.8421446,2.875665 1.9863183,4.019839 1.1246277,1.124628 2.4538117,1.787462 4.0208227,2.005093 0.488897,0.0679 1.791212,0.01882 2.283865,-0.08607 z"
       id="path2012"
       transform="scale(0.26458333)" />
    <path
       style="fill:#c83737;fill-opacity:0;stroke-width:0.0446429"
       d="m 13.772883,26.011426 c -2.887409,-0.485018 -4.9922205,-3.081578 -4.8647249,-6.001274 0.028188,-0.645515 0.1245163,-1.157046 0.3194604,-1.696428 1.1339765,-3.137549 4.5994335,-4.712092 7.6644855,-3.482389 0.788971,0.316537 1.394795,0.721642 2.003001,1.339376 0.948159,0.963013 1.492707,2.128135 1.6484,3.526941 0.169865,1.526135 -0.363396,3.171991 -1.424268,4.39586 -1.100015,1.269025 -2.72335,1.997271 -4.421479,1.983525 -0.308732,-0.0025 -0.724925,-0.03202 -0.924875,-0.06561 z m 0.430509,-1.492345 v -0.535714 h 0.245536 0.245536 v 0.535714 0.535714 h 0.558035 0.558036 v -0.530896 -0.530896 l 0.502232,-0.0171 c 0.470294,-0.01601 0.520192,-0.02676 0.784644,-0.169097 0.326938,-0.175967 0.550912,-0.413931 0.716209,-0.760944 0.110928,-0.232875 0.11776,-0.288527 0.132494,-1.079285 0.01722,-0.92394 -0.01944,-1.145413 -0.249675,-1.508666 l -0.126485,-0.199558 0.14495,-0.240713 c 0.208771,-0.346698 0.249308,-0.61286 0.231572,-1.520454 -0.01538,-0.787054 -0.01563,-0.788744 -0.161859,-1.085643 -0.292868,-0.594641 -0.766604,-0.877067 -1.538814,-0.91739 l -0.435268,-0.02273 v -0.529746 -0.529746 h -0.558036 -0.558035 v 0.535714 0.535715 h -0.245536 -0.245536 v -0.535715 -0.535714 h -0.535714 -0.535714 v 0.535714 0.535715 h -0.803572 -0.803571 v 0.558035 0.558036 h 0.535714 0.535714 v 2.65625 2.65625 h -0.535714 -0.535714 v 0.535714 0.535715 h 0.803571 0.803572 v 0.535714 0.535714 h 0.535714 0.535714 z"
       id="path2014"
       transform="scale(0.26458333)" />
    <path
       style="fill:#2b1100;fill-opacity:0;stroke-width:0.0446429"
       d="M 13.623035,30.859464 C 11.114549,30.659831 8.8960727,29.921087 7.0828566,28.681609 5.6133471,27.677082 4.4631493,26.377901 3.7731376,24.943188 2.992758,23.320577 2.8402318,21.70629 3.2901665,19.831581 3.8833557,17.359984 5.4067445,14.3029 7.3056005,11.773545 7.8511999,11.046784 8.5193816,10.256763 8.8977477,9.8910787 L 9.136428,9.6603978 9.8060709,9.7889465 c 0.3683031,0.070702 0.6748671,0.1293073 0.6812531,0.1302345 0.0064,9.271e-4 -0.151053,0.197556 -0.349863,0.436954 -0.4484856,0.540043 -0.5044321,0.64326 -0.4735325,0.873632 0.033944,0.253074 0.2268696,0.435077 0.4929805,0.465072 0.273726,0.03085 0.336885,-0.01567 0.84653,-0.623622 0.23193,-0.276666 0.519778,-0.59809 0.639661,-0.714275 l 0.21797,-0.211246 0.535,0.06717 c 0.29425,0.03694 0.824181,0.08001 1.177623,0.09571 l 0.642622,0.02854 -0.02365,0.673575 c -0.02876,0.819109 -0.01345,0.932711 0.147317,1.093479 0.229851,0.22985 0.606388,0.209117 0.820358,-0.04517 0.102383,-0.121675 0.114501,-0.174596 0.114708,-0.500926 1.34e-4,-0.200684 0.0132,-0.560749 0.02905,-0.800147 l 0.02882,-0.435268 0.316928,-9.16e-4 c 0.306031,-8.84e-4 1.424108,-0.09801 1.790141,-0.15551 0.176014,-0.02765 0.183439,-0.02305 0.518296,0.320884 0.492568,0.505922 0.994138,1.090789 1.462944,1.7059 0.226056,0.296604 0.449002,0.559612 0.495433,0.584461 0.04643,0.02485 0.175828,0.04518 0.287545,0.04518 0.372181,0 0.62079,-0.361935 0.496649,-0.723039 -0.07919,-0.230342 -1.009553,-1.422727 -1.533256,-1.965069 -0.143907,-0.1490286 -0.184615,-0.2165415 -0.139511,-0.2313762 0.03503,-0.011521 0.344936,-0.071466 0.688686,-0.1332122 l 0.625,-0.1122654 0.354326,0.3659628 c 2.32609,2.402488 4.680438,6.589293 5.445962,9.684711 0.500723,2.024691 0.354501,3.609853 -0.48999,5.311838 -1.42233,2.866566 -4.430803,4.935584 -8.189762,5.632352 -1.048262,0.194307 -2.806781,0.289079 -3.839286,0.20691 z m 2.761564,-1.09447 c 1.481392,-0.187131 2.884201,-0.613555 4.224644,-1.284205 0.654023,-0.32722 1.296405,-0.711925 1.465763,-0.877806 0.249684,-0.244557 0.191996,-0.665109 -0.117085,-0.853566 -0.209651,-0.127832 -0.380469,-0.109181 -0.681262,0.07438 -0.58358,0.356143 -0.726208,0.436239 -1.199411,0.67356 -2.929437,1.469167 -6.276805,1.654314 -9.482266,0.524473 -0.45717,-0.16114 -0.6324785,-0.203649 -0.7567156,-0.183488 -0.3690142,0.05988 -0.5682067,0.50569 -0.3683178,0.824323 0.1120915,0.178679 0.3298344,0.280789 1.1880774,0.557144 0.98782,0.31808 1.963572,0.514307 3.037789,0.610913 0.599182,0.05389 2.016051,0.01925 2.688784,-0.06573 z M 8.5825834,28.066021 c 0.1672031,-0.08646 0.3079232,-0.311815 0.308142,-0.493463 2.678e-4,-0.21651 -0.1688045,-0.413184 -0.5776697,-0.672005 -0.4106986,-0.259982 -0.6046915,-0.298884 -0.852196,-0.170895 -0.2648816,0.136976 -0.3457022,0.517131 -0.1659495,0.780576 0.1269504,0.186058 0.8463991,0.624918 1.0244634,0.624918 0.071238,0 0.1896826,-0.03111 0.2632098,-0.06913 z m 7.5475306,-0.999947 c 2.441634,-0.519838 4.415206,-2.272774 5.191944,-4.611511 0.393925,-1.186098 0.466024,-2.493062 0.204004,-3.698116 -0.249713,-1.148464 -0.818446,-2.261878 -1.594354,-3.121284 -1.018675,-1.128298 -2.197946,-1.823737 -3.697066,-2.180233 -0.455159,-0.108239 -0.564526,-0.11668 -1.495535,-0.115437 -1.08863,0.0015 -1.458431,0.05353 -2.222796,0.313003 -3.1458763,1.067918 -5.1119093,4.209866 -4.677203,7.474712 0.2134915,1.60342 0.8421446,2.875665 1.9863183,4.019839 1.1246277,1.124628 2.4538117,1.787462 4.0208227,2.005093 0.488897,0.0679 1.791212,0.01882 2.283865,-0.08607 z"
       id="path2016"
       transform="scale(0.26458333)" />
    <path
       style="fill:#2b1100;fill-opacity:0;stroke-width:0.0446429;stroke:#c8b7b7"
       d="M 13.623035,30.859464 C 11.114549,30.659831 8.8960727,29.921087 7.0828566,28.681609 5.6133471,27.677082 4.4631493,26.377901 3.7731376,24.943188 2.992758,23.320577 2.8402318,21.70629 3.2901665,19.831581 3.8833557,17.359984 5.4067445,14.3029 7.3056005,11.773545 7.8511999,11.046784 8.5193816,10.256763 8.8977477,9.8910787 L 9.136428,9.6603978 9.8060709,9.7889465 c 0.3683031,0.070702 0.6748671,0.1293073 0.6812531,0.1302345 0.0064,9.271e-4 -0.151053,0.197556 -0.349863,0.436954 -0.4484856,0.540043 -0.5044321,0.64326 -0.4735325,0.873632 0.033944,0.253074 0.2268696,0.435077 0.4929805,0.465072 0.273726,0.03085 0.336885,-0.01567 0.84653,-0.623622 0.23193,-0.276666 0.519778,-0.59809 0.639661,-0.714275 l 0.21797,-0.211246 0.535,0.06717 c 0.29425,0.03694 0.824181,0.08001 1.177623,0.09571 l 0.642622,0.02854 -0.02365,0.673575 c -0.02876,0.819109 -0.01345,0.932711 0.147317,1.093479 0.229851,0.22985 0.606388,0.209117 0.820358,-0.04517 0.102383,-0.121675 0.114501,-0.174596 0.114708,-0.500926 1.34e-4,-0.200684 0.0132,-0.560749 0.02905,-0.800147 l 0.02882,-0.435268 0.316928,-9.16e-4 c 0.306031,-8.84e-4 1.424108,-0.09801 1.790141,-0.15551 0.176014,-0.02765 0.183439,-0.02305 0.518296,0.320884 0.492568,0.505922 0.994138,1.090789 1.462944,1.7059 0.226056,0.296604 0.449002,0.559612 0.495433,0.584461 0.04643,0.02485 0.175828,0.04518 0.287545,0.04518 0.372181,0 0.62079,-0.361935 0.496649,-0.723039 -0.07919,-0.230342 -1.009553,-1.422727 -1.533256,-1.965069 -0.143907,-0.1490286 -0.184615,-0.2165415 -0.139511,-0.2313762 0.03503,-0.011521 0.344936,-0.071466 0.688686,-0.1332122 l 0.625,-0.1122654 0.354326,0.3659628 c 2.32609,2.402488 4.680438,6.589293 5.445962,9.684711 0.500723,2.024691 0.354501,3.609853 -0.48999,5.311838 -1.42233,2.866566 -4.430803,4.935584 -8.189762,5.632352 -1.048262,0.194307 -2.806781,0.289079 -3.839286,0.20691 z m 2.761564,-1.09447 c 1.481392,-0.187131 2.884201,-0.613555 4.224644,-1.284205 0.654023,-0.32722 1.296405,-0.711925 1.465763,-0.877806 0.249684,-0.244557 0.191996,-0.665109 -0.117085,-0.853566 -0.209651,-0.127832 -0.380469,-0.109181 -0.681262,0.07438 -0.58358,0.356143 -0.726208,0.436239 -1.199411,0.67356 -2.929437,1.469167 -6.276805,1.654314 -9.482266,0.524473 -0.45717,-0.16114 -0.6324785,-0.203649 -0.7567156,-0.183488 -0.3690142,0.05988 -0.5682067,0.50569 -0.3683178,0.824323 0.1120915,0.178679 0.3298344,0.280789 1.1880774,0.557144 0.98782,0.31808 1.963572,0.514307 3.037789,0.610913 0.599182,0.05389 2.016051,0.01925 2.688784,-0.06573 z M 8.5825834,28.066021 c 0.1672031,-0.08646 0.3079232,-0.311815 0.308142,-0.493463 2.678e-4,-0.21651 -0.1688045,-0.413184 -0.5776697,-0.672005 -0.4106986,-0.259982 -0.6046915,-0.298884 -0.852196,-0.170895 -0.2648816,0.136976 -0.3457022,0.517131 -0.1659495,0.780576 0.1269504,0.186058 0.8463991,0.624918 1.0244634,0.624918 0.071238,0 0.1896826,-0.03111 0.2632098,-0.06913 z m 7.5475306,-0.999947 c 2.441634,-0.519838 4.415206,-2.272774 5.191944,-4.611511 0.393925,-1.186098 0.466024,-2.493062 0.204004,-3.698116 -0.249713,-1.148464 -0.818446,-2.261878 -1.594354,-3.121284 -1.018675,-1.128298 -2.197946,-1.823737 -3.697066,-2.180233 -0.455159,-0.108239 -0.564526,-0.11668 -1.495535,-0.115437 -1.08863,0.0015 -1.458431,0.05353 -2.222796,0.313003 -3.1458763,1.067918 -5.1119093,4.209866 -4.677203,7.474712 0.2134915,1.60342 0.8421446,2.875665 1.9863183,4.019839 1.1246277,1.124628 2.4538117,1.787462 4.0208227,2.005093 0.488897,0.0679 1.791212,0.01882 2.283865,-0.08607 z"
       id="path2018"
       transform="scale(0.26458333)" />
    <path
       style="fill:#2b1100;fill-opacity:0;stroke:#c8b7b7;stroke-width:0.0446429"
       d="M 13.779285,30.827633 C 13.255535,30.793282 12.34971,30.668073 11.746001,30.546579 10.575958,30.311113 9.5512776,29.963928 8.511428,29.450634 6.0660249,28.243525 4.2448074,26.301678 3.469762,24.07503 2.9998367,22.724969 2.9694932,21.288406 3.3770901,19.68762 3.9867182,17.293383 5.4841241,14.300377 7.2707504,11.904997 7.7725084,11.232276 8.5026816,10.358681 8.8713106,9.9900518 l 0.280875,-0.2808751 0.5724782,0.1074285 c 0.6582062,0.1235158 0.7220022,0.1414292 0.6580942,0.1847878 -0.101324,0.06874 -0.6604795,0.800009 -0.7205344,0.942316 -0.1806277,0.428018 0.2867888,0.922415 0.7329694,0.775277 0.07696,-0.02538 0.368904,-0.313707 0.758083,-0.748698 0.348106,-0.389082 0.65949,-0.722052 0.691964,-0.739933 0.03247,-0.01788 0.290072,-0.0057 0.572438,0.02708 0.282366,0.03278 0.789621,0.07372 1.127232,0.09099 l 0.613839,0.0314 v 0.75488 c 0,0.835382 0.03134,0.962958 0.266396,1.084511 0.07203,0.03725 0.222651,0.06772 0.334722,0.06772 0.169561,0 0.231613,-0.02552 0.369664,-0.152034 l 0.165898,-0.152035 0.03078,-0.662698 c 0.01693,-0.364483 0.03238,-0.725052 0.03434,-0.801263 l 0.0036,-0.138566 0.569196,-0.03154 c 0.313058,-0.01735 0.810268,-0.06063 1.104911,-0.09619 l 0.535714,-0.06465 0.518392,0.531224 c 0.285116,0.292174 0.793573,0.875888 1.129905,1.297143 0.373569,0.467896 0.658241,0.783977 0.731607,0.812327 0.20796,0.08036 0.493498,0.02066 0.65008,-0.135922 0.124085,-0.124084 0.139659,-0.168302 0.139659,-0.396509 0,-0.235975 -0.01792,-0.282164 -0.22045,-0.568337 -0.292172,-0.412829 -0.792586,-1.036556 -1.162201,-1.448592 -0.164556,-0.183443 -0.282385,-0.3389965 -0.261842,-0.3456754 0.02054,-0.00668 0.298511,-0.060718 0.617707,-0.1200864 l 0.580357,-0.107943 0.260939,0.2527256 c 0.629576,0.6097612 1.617271,1.8489272 2.336431,2.9312972 1.143261,1.720661 2.221593,3.842278 2.800132,5.509256 0.873606,2.517171 0.907976,4.277303 0.119946,6.142529 -1.243204,2.942602 -4.235232,5.195913 -7.937187,5.977534 -1.192803,0.251845 -2.948507,0.384096 -4.098118,0.308697 z m 1.833172,-0.971747 c 1.92798,-0.06585 4.035287,-0.717097 5.905829,-1.825146 0.512342,-0.303495 0.701959,-0.486256 0.745544,-0.718584 0.03841,-0.204751 -0.08608,-0.459063 -0.29258,-0.597667 -0.224775,-0.150873 -0.41216,-0.110806 -0.929046,0.198649 -1.572941,0.941704 -3.152708,1.496525 -4.896847,1.719793 -0.252712,0.03235 -0.872605,0.0558 -1.428572,0.05405 -1.445064,-0.0046 -2.52836,-0.186777 -3.977979,-0.669119 -0.378319,-0.125881 -0.705203,-0.207546 -0.8380793,-0.209377 -0.194971,-0.0027 -0.2333589,0.01393 -0.3656054,0.158233 -0.1923285,0.209867 -0.2335959,0.423552 -0.1242794,0.643524 0.045501,0.09156 0.1334428,0.203463 0.1954268,0.248675 0.2967968,0.21649 1.9695793,0.700681 3.0569453,0.884841 0.559285,0.09472 1.659858,0.172868 2.075893,0.147397 0.110491,-0.0068 0.503498,-0.02264 0.87335,-0.03527 z M 8.5500093,28.118241 C 8.8648754,27.986682 9.0138718,27.617913 8.8643441,27.340257 8.7098437,27.053367 8.0113678,26.618702 7.7032977,26.617732 7.497128,26.617084 7.2726205,26.788977 7.1972939,27.005157 c -0.133968,0.384472 0.08236,0.675252 0.7717926,1.037413 0.2929942,0.153912 0.3697406,0.163908 0.5809228,0.07567 z m 7.4092187,-0.98989 c 0.732878,-0.105794 1.697159,-0.469166 2.418272,-0.911283 1.649742,-1.011463 2.77427,-2.622784 3.214533,-4.606061 0.09837,-0.443115 0.140184,-1.827379 0.07014,-2.321644 -0.211579,-1.492927 -0.901656,-2.890647 -1.945876,-3.941289 -0.902527,-0.908077 -1.838795,-1.461091 -3.124508,-1.845513 l -0.535714,-0.160176 -1.089414,-0.01847 c -1.460492,-0.02476 -1.987488,0.06086 -2.962772,0.481322 -3.4139565,1.471838 -5.0951588,5.298583 -3.8624395,8.791669 0.861483,2.441135 3.2063355,4.314048 5.7612815,4.601732 0.419153,0.0472 1.498092,0.01032 2.056501,-0.07029 z"
       id="path2020"
       transform="scale(0.26458333)" />
    <path
       style="fill:#808000;fill-opacity:0;stroke:#c8b7b7;stroke-width:0.0446429"
       d="M 14.091785,31.944909 C 11.208872,31.771385 8.6741847,30.967746 6.4841495,29.53286 4.1289657,27.989772 2.6337227,25.922575 2.1167763,23.494901 2.0068568,22.978699 1.9973291,22.851102 1.9965757,21.885152 1.9957064,20.770595 2.0241075,20.523601 2.2684504,19.52076 3.0705634,16.228699 5.298587,12.221383 7.8958039,9.3994198 L 8.355178,8.9002944 V 7.9595636 7.0188328 L 6.7658923,3.8405103 C 5.6031551,1.5152177 5.1766066,0.62108585 5.1766066,0.50904594 c 0,-0.0842279 0.039102,-0.20582417 0.086893,-0.27021399 C 5.4184005,0.0301306 5.5208903,0.00272705 6.0560709,0.02691553 6.6363495,0.0531423 7.2554816,0.19963223 7.7888021,0.43688906 9.092595,1.0169037 9.2150472,1.0483679 10.185535,1.0527302 c 0.900041,0.00405 1.189964,-0.0622834 2.126418,-0.48648565 0.346984,-0.15717998 0.829127,-0.34011064 1.071428,-0.40651259 0.409811,-0.11230779 0.502839,-0.12078956 1.333404,-0.1215726 0.827888,-7.8049e-4 0.924735,0.0077803 1.330946,0.11764822 0.240948,0.0651695 0.602555,0.19165615 0.803571,0.28108148 1.316104,0.58549144 1.425281,0.61316474 2.419055,0.61316474 0.922213,0 1.159575,-0.0543522 2.102025,-0.48132956 0.767655,-0.347786 1.34214,-0.50456947 1.990977,-0.54335971 0.537803,-0.03215214 0.697338,0.0076048 0.841192,0.20962886 0.182008,0.25560768 0.184155,0.25042406 -1.496694,3.61381871 l -1.584822,3.1712412 5.45e-4,0.9481746 5.45e-4,0.9481745 0.452524,0.4910715 c 2.854299,3.0974311 5.203511,7.5508991 5.799628,10.9945201 0.689392,3.982442 -1.460883,7.729677 -5.661683,9.866488 -1.923303,0.978322 -3.913507,1.519797 -6.10495,1.660977 -0.638942,0.04116 -1.025335,0.04509 -1.517857,0.01545 z m 2.433036,-1.110562 c 5.054761,-0.58249 8.958789,-3.628537 9.829819,-7.669536 0.08149,-0.378048 0.09798,-0.599027 0.09884,-1.324301 0.0011,-0.940298 -0.03844,-1.245644 -0.292021,-2.254465 -0.782097,-3.111362 -3.001794,-7.025926 -5.489027,-9.6802127 L 20.386428,9.600619 19.655343,9.7366194 c -0.402096,0.0748 -0.737932,0.1428482 -0.746302,0.1512183 -0.0084,0.00837 0.125962,0.1749173 0.298515,0.3701063 0.442473,0.500513 0.92576,1.099008 1.218632,1.509132 0.300463,0.420754 0.329234,0.608822 0.127651,0.834414 -0.136926,0.153233 -0.423644,0.22172 -0.579353,0.138387 -0.0495,-0.02649 -0.330953,-0.355197 -0.625459,-0.730461 -0.476176,-0.606751 -1.359807,-1.6152 -1.607296,-1.834338 -0.08663,-0.07671 -0.119918,-0.07723 -0.687457,-0.01078 -0.328029,0.03841 -0.859729,0.08268 -1.181556,0.09839 l -0.585138,0.02855 -0.0287,0.469079 c -0.01579,0.257994 -0.0287,0.618633 -0.0287,0.801421 0,0.318433 -0.0064,0.338693 -0.151786,0.484127 -0.127588,0.127588 -0.183771,0.151785 -0.352421,0.151785 -0.159789,0 -0.228864,-0.02637 -0.339286,-0.129518 -0.154581,-0.1444 -0.146517,-0.07605 -0.138774,-1.176285 l 0.0043,-0.613839 -0.303437,-7.06e-4 c -0.379249,-8.84e-4 -1.255967,-0.06969 -1.747339,-0.137142 l -0.372473,-0.05113 -0.200743,0.194935 c -0.110408,0.107214 -0.389643,0.419372 -0.620521,0.693684 -0.535598,0.636356 -0.614769,0.699611 -0.838324,0.669796 -0.2120536,-0.02828 -0.4191125,-0.215366 -0.4560036,-0.412013 -0.036312,-0.193557 0.042904,-0.333278 0.4965076,-0.87574 0.208171,-0.248951 0.373202,-0.4579297 0.366735,-0.4643971 -0.0065,-0.00647 -0.342127,-0.073897 -0.74591,-0.1498438 L 9.0965731,9.6073698 8.9225709,9.7752797 C 8.4078419,10.271986 7.44312,11.449118 6.8088691,12.35437 4.9815314,14.962487 3.6355678,17.86174 3.1510835,20.233367 3.0106371,20.920873 2.9558993,22.154461 3.0398818,22.73944 c 0.2590192,1.804193 1.1791027,3.492842 2.6788639,4.916575 0.8373051,0.794858 1.7170971,1.39476 2.8347386,1.932915 1.6173847,0.778786 3.0438197,1.137906 5.2927647,1.332512 0.406438,0.03517 2.093649,-0.01969 2.678572,-0.08709 z m -0.625,-21.5835861 C 16.917569,9.1819248 18.357158,8.969839 19.861875,8.6670556 L 20.09625,8.6198935 V 8.0873444 c 0,-0.4774902 -0.0081,-0.5325321 -0.07813,-0.5323848 -0.04297,8.93e-5 -0.570313,0.088828 -1.171875,0.1971955 -3.179801,0.5728192 -5.04346,0.5738112 -8.193857,0.00436 C 10.039595,7.6457502 9.5030575,7.5550493 9.4600888,7.5549591 9.390041,7.5548252 9.3819638,7.6098538 9.3819638,8.087344 v 0.5325491 l 0.234375,0.047162 c 2.7072922,0.5447692 4.4565732,0.7072692 6.2834822,0.5837058 z m 0.08929,-2.1421045 c 0.306919,-0.02328 0.678571,-0.055937 0.825892,-0.072571 l 0.267858,-0.030242 0.758928,-1.5382116 c 0.453285,-0.9187255 0.802303,-1.5726869 0.866629,-1.6238155 0.225706,-0.1793994 0.468295,-0.1618583 0.67927,0.049117 0.233557,0.2335563 0.202692,0.3439691 -0.47463,1.6978951 -0.331561,0.662771 -0.587699,1.2056965 -0.569196,1.2065005 0.0185,8.035e-4 0.45774,-0.073798 0.976082,-0.1657822 L 20.26238,6.4643024 21.588012,3.8125909 C 22.317109,2.3541496 22.901852,1.1490881 22.88744,1.1346763 22.827642,1.0748787 22.283784,1.268764 21.368571,1.676153 20.294867,2.1540909 18.9177,2.2298813 17.707857,1.877615 17.535982,1.8275708 17.138862,1.6682146 16.825368,1.5234903 15.945426,1.1172647 15.68111,1.0591445 14.716785,1.0598347 13.759933,1.0605196 13.539835,1.1102939 12.628401,1.532116 11.680513,1.9708095 10.77522,2.1534691 9.8730352,2.0880619 9.0450986,2.0280375 8.6279544,1.9182274 7.8032044,1.5431943 7.2665419,1.2991613 6.6379106,1.0875391 6.5904995,1.1349499 6.5762383,1.1492112 7.1610968,2.3541351 7.8901856,3.8125586 l 1.3256157,2.6516791 1.2204467,0.2189254 c 0.671245,0.120409 1.233054,0.2063183 1.248463,0.190909 0.01541,-0.015409 -0.254523,-0.6068313 -0.599849,-1.3142715 -0.68543,-1.404185 -0.690141,-1.4216085 -0.449464,-1.6622855 0.205688,-0.2056879 0.471822,-0.2067364 0.68853,-0.00271 0.04911,0.046233 0.430804,0.7731315 0.848214,1.6153297 0.417411,0.8421987 0.763116,1.538805 0.768232,1.5480143 0.04302,0.077425 2.218676,0.1134701 3.048733,0.05051 z"
       id="path2022"
       transform="scale(0.26458333)" />
    <path
       style="fill:#808000;fill-opacity:0;stroke:#c8b7b7;stroke-width:0.0446429"
       d="M 13.734642,30.782522 C 12.565084,30.703361 10.877371,30.348635 9.8105285,29.957745 6.3747879,28.698895 3.9011904,26.118845 3.2586934,23.123948 3.1206945,22.480689 3.1196462,21.204295 3.2565027,20.456581 3.6247093,18.444887 4.774124,15.792631 6.3478062,13.323447 7.0334476,12.247642 8.1613325,10.792576 8.8685709,10.071449 l 0.3125,-0.3186374 0.5658174,0.1101951 0.5658177,0.1101952 -0.3463538,0.4557531 c -0.1904942,0.250664 -0.3587608,0.517792 -0.3739259,0.593618 -0.092641,0.463202 0.4301857,0.9101 0.8374947,0.715868 0.07984,-0.03807 0.434192,-0.38445 0.787445,-0.769724 l 0.642276,-0.700499 0.334822,0.02297 c 0.184152,0.01263 0.691406,0.04879 1.127232,0.08035 l 0.792411,0.05739 0.0011,0.649988 c 5.84e-4,0.357493 0.01962,0.730345 0.0423,0.828559 0.100863,0.436733 0.663954,0.56576 1.027462,0.235433 l 0.155654,-0.141446 0.03074,-0.627351 c 0.01691,-0.345043 0.03224,-0.699954 0.03408,-0.788693 l 0.0033,-0.161342 0.524554,-0.03164 c 0.288505,-0.0174 0.768332,-0.05985 1.066283,-0.09434 l 0.541729,-0.0627 0.425413,0.434252 c 0.39598,0.404208 0.604159,0.641611 1.534982,1.75046 0.381648,0.454642 0.503424,0.527233 0.793247,0.472862 0.08819,-0.01654 0.230227,-0.09144 0.31564,-0.166432 0.147068,-0.129127 0.155295,-0.151563 0.155295,-0.423476 0,-0.194384 -0.02473,-0.326271 -0.07658,-0.408322 -0.202604,-0.32064 -0.815018,-1.09672 -1.370055,-1.7362 l -0.161813,-0.186431 0.235028,-0.04842 c 0.129266,-0.026631 0.380508,-0.075974 0.558315,-0.1096502 l 0.323286,-0.06123 0.39961,0.4076882 c 2.083063,2.125182 4.402076,6.147774 5.240777,9.090725 0.3548,1.244971 0.476626,2.232741 0.38957,3.158658 -0.356415,3.790808 -3.864303,7.126817 -8.484565,8.068842 -1.226324,0.250035 -2.966748,0.379474 -4.084822,0.303798 z m 2.767857,-0.951086 c 1.725149,-0.233251 3.476742,-0.843742 4.99674,-1.741537 0.65494,-0.386843 0.870286,-0.64186 0.804475,-0.952675 -0.0426,-0.201189 -0.229153,-0.429339 -0.414328,-0.506709 -0.214303,-0.08954 -0.389528,-0.03421 -0.989565,0.31249 -1.367375,0.790062 -2.735502,1.296613 -4.263393,1.578526 -0.647924,0.11955 -2.989995,0.120152 -3.697651,9.51e-4 -0.644607,-0.10858 -1.398772,-0.29575 -2.10592,-0.52265 -0.319197,-0.102419 -0.70705,-0.197069 -0.8618959,-0.210334 -0.2727174,-0.02336 -0.2863688,-0.01944 -0.4357045,0.125306 -0.3746357,0.363111 -0.2515576,0.86176 0.2695897,1.092236 0.7804657,0.345159 2.5284567,0.76314 3.7065817,0.886322 0.329912,0.03449 2.630163,-0.01313 2.991071,-0.06193 z M 8.5196825,28.176955 c 0.1871018,-0.07069 0.3670768,-0.262448 0.4156589,-0.442869 0.067161,-0.249415 -0.013165,-0.457792 -0.2579937,-0.669282 -0.2591572,-0.223866 -0.7799639,-0.492152 -0.9553848,-0.492152 -0.2808519,0 -0.5366076,0.233938 -0.5947837,0.544042 -0.061295,0.326733 0.2015112,0.639129 0.8001939,0.951183 0.3233643,0.16855 0.3983545,0.182359 0.5923094,0.109078 z m 7.6892845,-1.046464 c 2.627337,-0.584174 4.627608,-2.518457 5.337763,-5.161675 0.232596,-0.865729 0.25557,-2.354835 0.0502,-3.253647 -0.413144,-1.808121 -1.476128,-3.339384 -3.027359,-4.361003 -0.534236,-0.351841 -1.026987,-0.582083 -1.816154,-0.848613 l -0.608058,-0.205363 -1.272322,-0.0043 c -1.437597,-0.0049 -1.740388,0.03352 -2.5,0.317108 -1.355103,0.505907 -2.4364605,1.31428 -3.3022534,2.46861 -0.3609678,0.481266 -0.871529,1.47622 -1.0443772,2.035227 -0.7684849,2.485352 -0.1664031,5.096307 1.5978964,6.929347 1.0745202,1.116387 2.2683782,1.793613 3.7206692,2.110584 0.339638,0.07413 0.527244,0.08263 1.461101,0.06625 0.77296,-0.01356 1.163766,-0.03933 1.402896,-0.0925 z"
       id="path2024"
       transform="scale(0.26458333)" />
    <path
       style="fill:#ffaf46;fill-opacity:1;stroke:#c8b7b7;stroke-width:0.0631345"
       d="M 14.077539,26.042632 C 13.072423,25.923738 11.937625,25.452258 11.12365,24.815366 9.6495158,23.661936 8.8081524,21.796157 8.9191963,19.926844 c 0.1377448,-2.318793 1.6723327,-4.373932 3.8450917,-5.149396 0.79787,-0.284762 1.412771,-0.374612 2.276754,-0.332682 2.421396,0.117515 4.511147,1.736793 5.244575,4.063846 0.455576,1.445472 0.341909,2.905545 -0.333557,4.284594 -0.883679,1.804145 -2.606774,3.022298 -4.597779,3.250428 -0.606737,0.06952 -0.681043,0.06946 -1.276742,-0.001 z m 0.126269,-1.481659 V 24.02433 h 0.252538 0.252538 v 0.536643 0.536644 h 0.568211 0.568211 V 24.560973 24.02433 h 0.335781 c 0.757307,0 1.298368,-0.315031 1.601593,-0.932523 0.16907,-0.344297 0.177633,-0.404343 0.177633,-1.245619 0,-0.837748 -0.0091,-0.90245 -0.174687,-1.239596 l -0.174687,-0.355712 0.172958,-0.338768 c 0.163813,-0.320858 0.173049,-0.385494 0.174686,-1.22265 0.002,-1.029819 -0.05548,-1.250532 -0.43278,-1.6615 -0.354395,-0.386013 -0.657037,-0.513541 -1.222772,-0.515255 l -0.457725,-0.0014 V 15.974664 15.43802 h -0.568211 -0.568211 v 0.536644 0.536643 H 14.456346 14.203808 V 15.974664 15.43802 h -0.536644 -0.536643 v 0.536644 0.536643 h -0.820749 -0.820749 v 0.536644 0.536643 h 0.536643 0.536644 v 2.651651 2.65165 h -0.536644 -0.536643 v 0.568211 0.568211 h 0.820749 0.820749 v 0.536643 0.536644 h 0.536643 0.536644 z"
       id="path2591"
       transform="scale(0.26458333)" />
    <path
       style="fill:#ffaf46;fill-opacity:1;stroke:#c8b7b7;stroke-width:0.0631345"
       d="m 13.698732,18.626327 v -1.04172 h 1.284836 c 1.410278,0 1.63479,0.0403 1.779107,0.319383 0.113737,0.219942 0.127502,1.26523 0.01934,1.468319 -0.150021,0.281674 -0.206893,0.291627 -1.678536,0.29373 l -1.404743,0.002 z"
       id="path2593"
       transform="scale(0.26458333)" />
    <path
       style="fill:#ffaf46;fill-opacity:1;stroke:#c8b7b7;stroke-width:0.0631345"
       d="m 13.698732,21.846188 v -1.041719 h 1.385439 c 1.373525,0 1.386962,0.0013 1.562579,0.15237 0.17528,0.150768 0.177141,0.160114 0.177141,0.889349 0,0.729236 -0.0019,0.738582 -0.177141,0.88935 -0.175617,0.15106 -0.189054,0.15237 -1.562579,0.15237 h -1.385439 z"
       id="path2595"
       transform="scale(0.26458333)" />
    <path
       style="fill:#be4a2f;fill-opacity:1;stroke:#c8b7b7;stroke-width:0.0631345"
       d="M 13.519404,30.708937 C 11.947892,30.578765 9.900173,30.018865 8.587018,29.360293 7.1025995,28.615829 5.6703613,27.447237 4.7561491,26.234609 4.2696878,25.589358 3.6643521,24.39439 3.4286027,23.613955 3.267766,23.081515 3.2567764,22.968242 3.254033,21.814621 3.2512917,20.661816 3.2624827,20.5397 3.4299491,19.895018 4.2361536,16.79144 6.1094448,13.336067 8.4650448,10.607549 9.2056068,9.7497481 9.1259925,9.7993081 9.6178378,9.8899342 10.199991,9.9972 10.217388,10.016393 9.9917641,10.302458 c -0.2956237,0.374817 -0.4594167,0.670487 -0.4596756,0.829779 -5.682e-4,0.36585 0.3535098,0.705566 0.7384595,0.708454 0.144062,0.0011 0.311908,-0.139245 0.907445,-0.758657 l 0.730688,-0.759982 1.079512,0.07505 1.079511,0.07505 0.0207,0.777048 c 0.01951,0.7322 0.02981,0.785952 0.178537,0.931293 0.247523,0.241889 0.65504,0.242103 0.942174,4.93e-4 0.166812,-0.140361 0.194248,-0.205894 0.194248,-0.463981 0,-0.165294 0.01837,-0.5179 0.04083,-0.783569 l 0.04083,-0.483035 0.22749,7.23e-4 c 0.12512,3.98e-4 0.57693,-0.03283 1.004022,-0.07384 l 0.776531,-0.07456 0.381208,0.37373 c 0.209663,0.205552 0.673598,0.715805 1.030964,1.133896 1.025034,1.199211 1.17446,1.297029 1.592206,1.042311 0.276395,-0.16853 0.357646,-0.345495 0.311891,-0.679308 -0.04024,-0.293598 -0.31703,-0.704052 -1.113114,-1.650657 -0.214785,-0.255395 -0.36651,-0.485944 -0.337167,-0.512331 0.02934,-0.026387 0.238018,-0.083238 0.463723,-0.1263344 l 0.410375,-0.078358 0.587405,0.6159004 c 1.8709,1.961655 3.883262,5.395712 4.84913,8.274943 0.456743,1.361542 0.555493,1.913989 0.557363,3.118106 0.0015,0.947553 -0.01421,1.098737 -0.173414,1.672469 -0.407774,1.469463 -1.091151,2.605299 -2.280499,3.790399 -1.916632,1.909789 -4.324411,3.014094 -7.282374,3.33999 -1.107996,0.122075 -2.197045,0.155595 -2.971363,0.09146 z m 3.336054,-0.877464 c 0.62033,-0.101605 1.802789,-0.410654 2.401991,-0.627789 0.29357,-0.106383 0.970795,-0.409662 1.504942,-0.673954 1.168598,-0.578214 1.585772,-0.923316 1.585772,-1.311813 0,-0.308092 -0.331018,-0.668206 -0.614217,-0.668206 -0.108334,0 -0.692655,0.255886 -1.411057,0.61793 -1.25207,0.630989 -2.140811,0.962904 -3.278027,1.224234 -0.530639,0.12194 -0.78536,0.1381 -2.209709,0.140191 -1.820511,0.0027 -2.036761,-0.02654 -3.701559,-0.500034 -1.2151808,-0.345616 -1.4635559,-0.358618 -1.6908314,-0.08852 -0.2019025,0.239948 -0.2195914,0.601233 -0.040579,0.82881 0.1830555,0.232718 0.7614294,0.464914 1.8495384,0.742524 1.583029,0.403879 1.95297,0.445379 3.678133,0.412616 0.833376,-0.01583 1.699897,-0.05902 1.925603,-0.09599 z M 8.6918809,28.130858 C 8.9700603,27.961241 9.0814557,27.596197 8.9390629,27.32084 8.7608046,26.976126 8.0656885,26.54856 7.6876824,26.551115 c -0.3470398,0.0023 -0.6180768,0.304857 -0.6180768,0.689853 0,0.251001 0.2942823,0.570412 0.7576144,0.822307 0.407092,0.22132 0.5891824,0.235553 0.8646609,0.06758 z M 15.34023,27.247095 c 0.975088,-0.05612 1.537293,-0.192038 2.392113,-0.578297 1.000256,-0.451975 2.199983,-1.466297 2.79296,-2.361337 0.880939,-1.329691 1.254649,-2.560041 1.254649,-4.130636 0,-1.941297 -0.733204,-3.653515 -2.148915,-5.018265 -0.846592,-0.816117 -1.473109,-1.194706 -2.740262,-1.655874 l -0.753865,-0.274361 -1.045469,5.17e-4 c -1.339696,6.64e-4 -2.024934,0.08132 -2.659978,0.313079 -1.789889,0.653229 -3.187709,1.884193 -4.0022155,3.524478 -0.5848585,1.177809 -0.7555269,1.911053 -0.7525054,3.232993 0.00166,0.725024 0.031072,1.033647 0.1414094,1.483662 0.3590178,1.464271 0.9360736,2.469896 2.0175175,3.515892 0.92144,0.891236 1.807799,1.425792 2.906878,1.753112 0.831723,0.247697 1.201026,0.275425 2.597683,0.195037 z"
       id="path2597"
       transform="scale(0.26458333)" />
    <path
       style="fill:#be4a2f;fill-opacity:1;stroke:#c8b7b7;stroke-width:0.0631345"
       d="M 13.698732,9.2123416 C 12.76499,9.146531 10.028185,8.7323784 9.5093059,8.5783681 9.4065959,8.5478823 9.3950855,8.4899822 9.4164764,8.1114153 c 0.01343,-0.2376836 0.039951,-0.4476838 0.058934,-0.4666672 0.018983,-0.018983 0.50112,0.050875 1.0714146,0.1552407 2.130787,0.3899408 3.874846,0.5107296 5.519452,0.3822622 1.076822,-0.084115 1.418475,-0.1304291 2.865451,-0.3884336 0.569002,-0.1014565 1.046073,-0.1844664 1.060159,-0.1844664 0.01409,0 0.01731,0.21945 0.0072,0.4876667 l -0.01844,0.4876667 -0.915451,0.1713109 c -1.952523,0.3653813 -4.084623,0.546689 -5.366435,0.4563463 z"
       id="path2599"
       transform="scale(0.26458333)" />
    <path
       style="fill:#be4a2f;fill-opacity:1;stroke:#c8b7b7;stroke-width:0.0631345"
       d="M 13.429017,7.0620821 13.001466,7.0353075 12.242705,5.491521 C 11.825386,4.6424385 11.422908,3.8908715 11.348309,3.8213722 11.195046,3.6785858 10.821818,3.6538478 10.662803,3.7759359 10.528458,3.8790826 10.415736,4.0993077 10.415736,4.25863 c 0,0.071489 0.261771,0.654431 0.581714,1.2954274 0.319943,0.6409964 0.560738,1.1864245 0.5351,1.2120623 C 11.493516,6.8051539 9.2981552,6.4500914 9.2447915,6.3961134 9.2146034,6.3655778 6.6907984,1.2759625 6.6907984,1.2456195 c 0,-0.073033 0.4547096,0.076709 1.0205515,0.3360811 0.8684219,0.3980701 1.5340622,0.5447278 2.4788361,0.5461514 0.909883,0.00137 1.6276,-0.1478015 2.359582,-0.4904233 0.900333,-0.4214222 1.120977,-0.4788348 1.969713,-0.5125268 0.953543,-0.037853 1.368908,0.04478 2.257956,0.4491989 0.966331,0.4395734 1.191866,0.4913246 2.292557,0.5260494 1.154081,0.036409 1.589701,-0.046784 2.662413,-0.5084608 0.699964,-0.3012521 1.057698,-0.432112 1.057698,-0.3869088 0,0.015721 -0.581368,1.1910487 -1.291928,2.6118392 l -1.291928,2.5832554 -0.333786,0.068779 c -0.545493,0.112402 -1.397198,0.2561671 -1.414588,0.2387776 -0.0089,-0.00889 0.237756,-0.53791 0.548102,-1.1755991 0.310347,-0.637689 0.564266,-1.2369891 0.564266,-1.331778 0,-0.094789 -0.05888,-0.2472011 -0.130851,-0.3386939 -0.105438,-0.1340425 -0.18405,-0.1663506 -0.404762,-0.1663506 -0.224156,0 -0.300734,0.032567 -0.421576,0.1792892 -0.08122,0.098609 -0.472162,0.8338119 -0.868769,1.633784 l -0.721105,1.454495 -0.352182,0.040134 c -0.462086,0.052658 -2.695916,0.093566 -3.241981,0.05937 z"
       id="path2601"
       transform="scale(0.26458333)" />
  </g>
</svg>
